<svg xmlns="http://www.w3.org/2000/svg" viewBox="0 0 200 200" width="400" height="400">
<g stroke="#222" stroke-width="5" stroke-linejoin="round" stroke-linecap="round" fill="none">
<g transform="rotate(35 100 100)"><rect x="70" y="72" width="60" height="102" rx="16" fill="#d6ecff" />
<path d="M70,118 L130,118 L130,158 C130,168 124,174 114,174 L86,174 C76,174 70,168 70,158 Z" fill="#ffffff" stroke="none"/>
<rect x="70" y="72" width="60" height="102" rx="16" fill="none" />
<line x1="116" y1="92" x2="130" y2="92" stroke="#222" stroke-width="3"/>
<line x1="116" y1="104" x2="130" y2="104" stroke="#222" stroke-width="3"/>
<rect x="64" y="62" width="72" height="16" rx="6" fill="#ff7fa8" />
<path d="M90,62 C88,40 96,20 100,18 C104,20 112,40 110,62 Z" fill="#f2c27d" />
</g>

</g>
</svg>
